<?xml version="1.0" encoding="UTF-8" standalone="no"?>
<!DOCTYPE svg PUBLIC "-//W3C//DTD SVG 1.1//EN"
 "http://www.w3.org/Graphics/SVG/1.1/DTD/svg11.dtd">
<!-- Generated by graphviz version 12.2.0 (20241103.1931)
 -->
<!-- Title: G Pages: 1 -->
<svg width="902pt" height="439pt"
 viewBox="0.00 0.00 902.45 438.95" xmlns="http://www.w3.org/2000/svg" xmlns:xlink="http://www.w3.org/1999/xlink">
<g id="graph0" class="graph" transform="scale(1 1) rotate(0) translate(21.6 417.35)">
<title>G</title>
<polygon fill="#111111" stroke="none" points="-21.6,21.6 -21.6,-417.35 880.85,-417.35 880.85,21.6 -21.6,21.6"/>
<!-- data/_module.mjs -->
<g id="node1" class="node">
<title>data/_module.mjs</title>
<path fill="none" stroke="#c6c5fe" d="M290.33,-275.75C290.33,-275.75 182.17,-275.75 182.17,-275.75 178.21,-275.75 174.25,-271.79 174.25,-267.83 174.25,-267.83 174.25,-259.92 174.25,-259.92 174.25,-255.96 178.21,-252 182.17,-252 182.17,-252 290.33,-252 290.33,-252 294.29,-252 298.25,-255.96 298.25,-259.92 298.25,-259.92 298.25,-267.83 298.25,-267.83 298.25,-271.79 294.29,-275.75 290.33,-275.75"/>
<text text-anchor="middle" x="236.25" y="-258.45" font-family="Arial" font-size="14.00" fill="#c6c5fe">data/_module.mjs</text>
</g>
<!-- data/actor&#45;character.mjs -->
<g id="node2" class="node">
<title>data/actor&#45;character.mjs</title>
<path fill="none" stroke="#c6c5fe" d="M502.08,-395.75C502.08,-395.75 356.42,-395.75 356.42,-395.75 352.46,-395.75 348.5,-391.79 348.5,-387.83 348.5,-387.83 348.5,-379.92 348.5,-379.92 348.5,-375.96 352.46,-372 356.42,-372 356.42,-372 502.08,-372 502.08,-372 506.04,-372 510,-375.96 510,-379.92 510,-379.92 510,-387.83 510,-387.83 510,-391.79 506.04,-395.75 502.08,-395.75"/>
<text text-anchor="middle" x="429.25" y="-378.45" font-family="Arial" font-size="14.00" fill="#c6c5fe">data/actor&#45;character.mjs</text>
</g>
<!-- data/_module.mjs&#45;&gt;data/actor&#45;character.mjs -->
<g id="edge1" class="edge">
<title>data/_module.mjs&#45;&gt;data/actor&#45;character.mjs</title>
<path fill="none" stroke="#757575" d="M247.27,-275.92C265.32,-296.82 305.44,-339.78 348.5,-362.88 351.56,-364.51 354.75,-366.03 358.02,-367.43"/>
<polygon fill="#757575" stroke="#757575" points="356.69,-370.67 367.28,-371 359.2,-364.14 356.69,-370.67"/>
</g>
<!-- data/actor&#45;npc.mjs -->
<g id="node3" class="node">
<title>data/actor&#45;npc.mjs</title>
<path fill="none" stroke="#c6c5fe" d="M485.21,-353.75C485.21,-353.75 373.29,-353.75 373.29,-353.75 369.33,-353.75 365.38,-349.79 365.38,-345.83 365.38,-345.83 365.38,-337.92 365.38,-337.92 365.38,-333.96 369.33,-330 373.29,-330 373.29,-330 485.21,-330 485.21,-330 489.17,-330 493.12,-333.96 493.12,-337.92 493.12,-337.92 493.12,-345.83 493.12,-345.83 493.12,-349.79 489.17,-353.75 485.21,-353.75"/>
<text text-anchor="middle" x="429.25" y="-336.45" font-family="Arial" font-size="14.00" fill="#c6c5fe">data/actor&#45;npc.mjs</text>
</g>
<!-- data/_module.mjs&#45;&gt;data/actor&#45;npc.mjs -->
<g id="edge2" class="edge">
<title>data/_module.mjs&#45;&gt;data/actor&#45;npc.mjs</title>
<path fill="none" stroke="#757575" d="M261.18,-276.1C283.46,-287.23 317.77,-303.73 348.5,-315.88 357.46,-319.41 367.11,-322.86 376.49,-326.02"/>
<polygon fill="#757575" stroke="#757575" points="375.31,-329.32 385.9,-329.12 377.5,-322.67 375.31,-329.32"/>
</g>
<!-- data/base&#45;actor.mjs -->
<g id="node4" class="node">
<title>data/base&#45;actor.mjs</title>
<path fill="none" stroke="#c6c5fe" d="M672.58,-333.75C672.58,-333.75 553.92,-333.75 553.92,-333.75 549.96,-333.75 546,-329.79 546,-325.83 546,-325.83 546,-317.92 546,-317.92 546,-313.96 549.96,-310 553.92,-310 553.92,-310 672.58,-310 672.58,-310 676.54,-310 680.5,-313.96 680.5,-317.92 680.5,-317.92 680.5,-325.83 680.5,-325.83 680.5,-329.79 676.54,-333.75 672.58,-333.75"/>
<text text-anchor="middle" x="613.25" y="-316.45" font-family="Arial" font-size="14.00" fill="#c6c5fe">data/base&#45;actor.mjs</text>
</g>
<!-- data/_module.mjs&#45;&gt;data/base&#45;actor.mjs -->
<g id="edge3" class="edge">
<title>data/_module.mjs&#45;&gt;data/base&#45;actor.mjs</title>
<path fill="none" stroke="#757575" d="M298.33,-273.32C362.85,-283.3 464.75,-299.06 534.85,-309.9"/>
<polygon fill="#757575" stroke="#757575" points="533.9,-313.3 544.32,-311.37 534.97,-306.38 533.9,-313.3"/>
</g>
<!-- data/base&#45;item.mjs -->
<g id="node5" class="node">
<title>data/base&#45;item.mjs</title>
<path fill="none" stroke="#c6c5fe" d="M671.08,-235.75C671.08,-235.75 555.42,-235.75 555.42,-235.75 551.46,-235.75 547.5,-231.79 547.5,-227.83 547.5,-227.83 547.5,-219.92 547.5,-219.92 547.5,-215.96 551.46,-212 555.42,-212 555.42,-212 671.08,-212 671.08,-212 675.04,-212 679,-215.96 679,-219.92 679,-219.92 679,-227.83 679,-227.83 679,-231.79 675.04,-235.75 671.08,-235.75"/>
<text text-anchor="middle" x="613.25" y="-218.45" font-family="Arial" font-size="14.00" fill="#c6c5fe">data/base&#45;item.mjs</text>
</g>
<!-- data/_module.mjs&#45;&gt;data/base&#45;item.mjs -->
<g id="edge4" class="edge">
<title>data/_module.mjs&#45;&gt;data/base&#45;item.mjs</title>
<path fill="none" stroke="#757575" d="M298.69,-261.93C354.13,-259.62 437.81,-254.76 510,-244.88 522.23,-243.2 535.2,-240.93 547.64,-238.5"/>
<polygon fill="#757575" stroke="#757575" points="548.29,-241.94 557.4,-236.53 546.9,-235.08 548.29,-241.94"/>
</g>
<!-- data/item&#45;feature.mjs -->
<g id="node6" class="node">
<title>data/item&#45;feature.mjs</title>
<path fill="none" stroke="#c6c5fe" d="M493.46,-235.75C493.46,-235.75 365.04,-235.75 365.04,-235.75 361.08,-235.75 357.12,-231.79 357.12,-227.83 357.12,-227.83 357.12,-219.92 357.12,-219.92 357.12,-215.96 361.08,-212 365.04,-212 365.04,-212 493.46,-212 493.46,-212 497.42,-212 501.38,-215.96 501.38,-219.92 501.38,-219.92 501.38,-227.83 501.38,-227.83 501.38,-231.79 497.42,-235.75 493.46,-235.75"/>
<text text-anchor="middle" x="429.25" y="-218.45" font-family="Arial" font-size="14.00" fill="#c6c5fe">data/item&#45;feature.mjs</text>
</g>
<!-- data/_module.mjs&#45;&gt;data/item&#45;feature.mjs -->
<g id="edge5" class="edge">
<title>data/_module.mjs&#45;&gt;data/item&#45;feature.mjs</title>
<path fill="none" stroke="#757575" d="M296.11,-251.55C315.72,-247.44 337.76,-242.83 358.13,-238.56"/>
<polygon fill="#757575" stroke="#757575" points="358.7,-242.02 367.77,-236.54 357.26,-235.17 358.7,-242.02"/>
</g>
<!-- data/item&#45;item.mjs -->
<g id="node7" class="node">
<title>data/item&#45;item.mjs</title>
<path fill="none" stroke="#c6c5fe" d="M485.58,-193.75C485.58,-193.75 372.92,-193.75 372.92,-193.75 368.96,-193.75 365,-189.79 365,-185.83 365,-185.83 365,-177.92 365,-177.92 365,-173.96 368.96,-170 372.92,-170 372.92,-170 485.58,-170 485.58,-170 489.54,-170 493.5,-173.96 493.5,-177.92 493.5,-177.92 493.5,-185.83 493.5,-185.83 493.5,-189.79 489.54,-193.75 485.58,-193.75"/>
<text text-anchor="middle" x="429.25" y="-176.45" font-family="Arial" font-size="14.00" fill="#c6c5fe">data/item&#45;item.mjs</text>
</g>
<!-- data/_module.mjs&#45;&gt;data/item&#45;item.mjs -->
<g id="edge6" class="edge">
<title>data/_module.mjs&#45;&gt;data/item&#45;item.mjs</title>
<path fill="none" stroke="#757575" d="M294.6,-251.61C300.86,-249.19 306.97,-246.31 312.5,-242.88 332.83,-230.27 328.08,-215.33 348.5,-202.88 350.96,-201.37 353.53,-199.98 356.17,-198.68"/>
<polygon fill="#757575" stroke="#757575" points="357.47,-201.94 365.26,-194.76 354.69,-195.51 357.47,-201.94"/>
</g>
<!-- data/item&#45;spell.mjs -->
<g id="node8" class="node">
<title>data/item&#45;spell.mjs</title>
<path fill="none" stroke="#c6c5fe" d="M486.33,-151.75C486.33,-151.75 372.17,-151.75 372.17,-151.75 368.21,-151.75 364.25,-147.79 364.25,-143.83 364.25,-143.83 364.25,-135.92 364.25,-135.92 364.25,-131.96 368.21,-128 372.17,-128 372.17,-128 486.33,-128 486.33,-128 490.29,-128 494.25,-131.96 494.25,-135.92 494.25,-135.92 494.25,-143.83 494.25,-143.83 494.25,-147.79 490.29,-151.75 486.33,-151.75"/>
<text text-anchor="middle" x="429.25" y="-134.45" font-family="Arial" font-size="14.00" fill="#c6c5fe">data/item&#45;spell.mjs</text>
</g>
<!-- data/_module.mjs&#45;&gt;data/item&#45;spell.mjs -->
<g id="edge7" class="edge">
<title>data/_module.mjs&#45;&gt;data/item&#45;spell.mjs</title>
<path fill="none" stroke="#757575" d="M298.44,-252.03C303.51,-249.53 308.3,-246.52 312.5,-242.88 342.56,-216.79 318.25,-186.74 348.5,-160.88 350.21,-159.41 352.02,-158.05 353.9,-156.77"/>
<polygon fill="#757575" stroke="#757575" points="355.51,-159.88 362.5,-151.92 352.07,-153.79 355.51,-159.88"/>
</g>
<!-- data/actor&#45;character.mjs&#45;&gt;data/base&#45;actor.mjs -->
<g id="edge8" class="edge">
<title>data/actor&#45;character.mjs&#45;&gt;data/base&#45;actor.mjs</title>
<path fill="none" stroke="#757575" d="M480.73,-371.6C490.5,-368.93 500.62,-365.98 510,-362.88 531.5,-355.76 554.99,-346.46 574.03,-338.51"/>
<polygon fill="#757575" stroke="#757575" points="575.14,-341.84 582.99,-334.72 572.42,-335.39 575.14,-341.84"/>
</g>
<!-- data/actor&#45;npc.mjs&#45;&gt;data/base&#45;actor.mjs -->
<g id="edge9" class="edge">
<title>data/actor&#45;npc.mjs&#45;&gt;data/base&#45;actor.mjs</title>
<path fill="none" stroke="#757575" d="M493.39,-334.94C506.55,-333.49 520.56,-331.95 534.18,-330.45"/>
<polygon fill="#757575" stroke="#757575" points="534.44,-333.95 544,-329.38 533.67,-326.99 534.44,-333.95"/>
</g>
<!-- data/base&#45;model.mjs -->
<g id="node9" class="node">
<title>data/base&#45;model.mjs</title>
<path fill="none" stroke="#cfffac" d="M851.33,-274.75C851.33,-274.75 724.42,-274.75 724.42,-274.75 720.46,-274.75 716.5,-270.79 716.5,-266.83 716.5,-266.83 716.5,-258.92 716.5,-258.92 716.5,-254.96 720.46,-251 724.42,-251 724.42,-251 851.33,-251 851.33,-251 855.29,-251 859.25,-254.96 859.25,-258.92 859.25,-258.92 859.25,-266.83 859.25,-266.83 859.25,-270.79 855.29,-274.75 851.33,-274.75"/>
<text text-anchor="middle" x="787.88" y="-257.45" font-family="Arial" font-size="14.00" fill="#cfffac">data/base&#45;model.mjs</text>
</g>
<!-- data/base&#45;actor.mjs&#45;&gt;data/base&#45;model.mjs -->
<g id="edge10" class="edge">
<title>data/base&#45;actor.mjs&#45;&gt;data/base&#45;model.mjs</title>
<path fill="none" stroke="#757575" d="M650.44,-309.51C676.45,-300.62 711.75,-288.55 739.93,-278.92"/>
<polygon fill="#757575" stroke="#757575" points="740.97,-282.26 749.3,-275.72 738.71,-275.64 740.97,-282.26"/>
</g>
<!-- data/base&#45;item.mjs&#45;&gt;data/base&#45;model.mjs -->
<g id="edge11" class="edge">
<title>data/base&#45;item.mjs&#45;&gt;data/base&#45;model.mjs</title>
<path fill="none" stroke="#757575" d="M668.87,-236.21C685.48,-239.97 703.91,-244.13 721.17,-248.03"/>
<polygon fill="#757575" stroke="#757575" points="720.31,-251.43 730.84,-250.21 721.86,-244.6 720.31,-251.43"/>
</g>
<!-- data/item&#45;feature.mjs&#45;&gt;data/base&#45;item.mjs -->
<g id="edge12" class="edge">
<title>data/item&#45;feature.mjs&#45;&gt;data/base&#45;item.mjs</title>
<path fill="none" stroke="#757575" d="M501.66,-223.88C512.94,-223.88 524.64,-223.88 536.02,-223.88"/>
<polygon fill="#757575" stroke="#757575" points="535.76,-227.38 545.76,-223.88 535.76,-220.38 535.76,-227.38"/>
</g>
<!-- data/item&#45;item.mjs&#45;&gt;data/base&#45;item.mjs -->
<g id="edge13" class="edge">
<title>data/item&#45;item.mjs&#45;&gt;data/base&#45;item.mjs</title>
<path fill="none" stroke="#757575" d="M483.87,-194.25C503.87,-198.86 526.78,-204.15 547.66,-208.97"/>
<polygon fill="#757575" stroke="#757575" points="546.69,-212.34 557.22,-211.18 548.27,-205.52 546.69,-212.34"/>
</g>
<!-- data/item&#45;spell.mjs&#45;&gt;data/base&#45;item.mjs -->
<g id="edge14" class="edge">
<title>data/item&#45;spell.mjs&#45;&gt;data/base&#45;item.mjs</title>
<path fill="none" stroke="#757575" d="M485.45,-152.13C493.81,-154.64 502.24,-157.55 510,-160.88 537.54,-172.68 566.39,-191.08 586.39,-204.96"/>
<polygon fill="#757575" stroke="#757575" points="584.3,-207.77 594.49,-210.68 588.34,-202.05 584.3,-207.77"/>
</g>
<!-- documents/actor.mjs -->
<g id="node10" class="node">
<title>documents/actor.mjs</title>
<path fill="none" stroke="#cfffac" d="M298.96,-233.75C298.96,-233.75 173.54,-233.75 173.54,-233.75 169.58,-233.75 165.62,-229.79 165.62,-225.83 165.62,-225.83 165.62,-217.92 165.62,-217.92 165.62,-213.96 169.58,-210 173.54,-210 173.54,-210 298.96,-210 298.96,-210 302.92,-210 306.88,-213.96 306.88,-217.92 306.88,-217.92 306.88,-225.83 306.88,-225.83 306.88,-229.79 302.92,-233.75 298.96,-233.75"/>
<text text-anchor="middle" x="236.25" y="-216.45" font-family="Arial" font-size="14.00" fill="#cfffac">documents/actor.mjs</text>
</g>
<!-- documents/item.mjs -->
<g id="node11" class="node">
<title>documents/item.mjs</title>
<path fill="none" stroke="#cfffac" d="M297.46,-191.75C297.46,-191.75 175.04,-191.75 175.04,-191.75 171.08,-191.75 167.12,-187.79 167.12,-183.83 167.12,-183.83 167.12,-175.92 167.12,-175.92 167.12,-171.96 171.08,-168 175.04,-168 175.04,-168 297.46,-168 297.46,-168 301.42,-168 305.38,-171.96 305.38,-175.92 305.38,-175.92 305.38,-183.83 305.38,-183.83 305.38,-187.79 301.42,-191.75 297.46,-191.75"/>
<text text-anchor="middle" x="236.25" y="-174.45" font-family="Arial" font-size="14.00" fill="#cfffac">documents/item.mjs</text>
</g>
<!-- helpers/config.mjs -->
<g id="node12" class="node">
<title>helpers/config.mjs</title>
<path fill="none" stroke="#cfffac" d="M291.08,-149.75C291.08,-149.75 181.42,-149.75 181.42,-149.75 177.46,-149.75 173.5,-145.79 173.5,-141.83 173.5,-141.83 173.5,-133.92 173.5,-133.92 173.5,-129.96 177.46,-126 181.42,-126 181.42,-126 291.08,-126 291.08,-126 295.04,-126 299,-129.96 299,-133.92 299,-133.92 299,-141.83 299,-141.83 299,-145.79 295.04,-149.75 291.08,-149.75"/>
<text text-anchor="middle" x="236.25" y="-132.45" font-family="Arial" font-size="14.00" fill="#cfffac">helpers/config.mjs</text>
</g>
<!-- helpers/effects.mjs -->
<g id="node13" class="node">
<title>helpers/effects.mjs</title>
<path fill="none" stroke="#cfffac" d="M485.96,-44.75C485.96,-44.75 372.54,-44.75 372.54,-44.75 368.58,-44.75 364.62,-40.79 364.62,-36.83 364.62,-36.83 364.62,-28.92 364.62,-28.92 364.62,-24.96 368.58,-21 372.54,-21 372.54,-21 485.96,-21 485.96,-21 489.92,-21 493.88,-24.96 493.88,-28.92 493.88,-28.92 493.88,-36.83 493.88,-36.83 493.88,-40.79 489.92,-44.75 485.96,-44.75"/>
<text text-anchor="middle" x="429.25" y="-27.45" font-family="Arial" font-size="14.00" fill="#cfffac">helpers/effects.mjs</text>
</g>
<!-- helpers/templates.mjs -->
<g id="node14" class="node">
<title>helpers/templates.mjs</title>
<path fill="none" stroke="#cfffac" d="M302.71,-107.75C302.71,-107.75 169.79,-107.75 169.79,-107.75 165.83,-107.75 161.88,-103.79 161.88,-99.83 161.88,-99.83 161.88,-91.92 161.88,-91.92 161.88,-87.96 165.83,-84 169.79,-84 169.79,-84 302.71,-84 302.71,-84 306.67,-84 310.62,-87.96 310.62,-91.92 310.62,-91.92 310.62,-99.83 310.62,-99.83 310.62,-103.79 306.67,-107.75 302.71,-107.75"/>
<text text-anchor="middle" x="236.25" y="-90.45" font-family="Arial" font-size="14.00" fill="#cfffac">helpers/templates.mjs</text>
</g>
<!-- lone&#45;wolf&#45;fists.mjs -->
<g id="node15" class="node">
<title>lone&#45;wolf&#45;fists.mjs</title>
<path fill="none" stroke="#c6c5fe" d="M116.08,-149.75C116.08,-149.75 7.92,-149.75 7.92,-149.75 3.96,-149.75 0,-145.79 0,-141.83 0,-141.83 0,-133.92 0,-133.92 0,-129.96 3.96,-126 7.92,-126 7.92,-126 116.08,-126 116.08,-126 120.04,-126 124,-129.96 124,-133.92 124,-133.92 124,-141.83 124,-141.83 124,-145.79 120.04,-149.75 116.08,-149.75"/>
<text text-anchor="middle" x="62" y="-132.45" font-family="Arial" font-size="14.00" fill="#c6c5fe">lone&#45;wolf&#45;fists.mjs</text>
</g>
<!-- lone&#45;wolf&#45;fists.mjs&#45;&gt;data/_module.mjs -->
<g id="edge15" class="edge">
<title>lone&#45;wolf&#45;fists.mjs&#45;&gt;data/_module.mjs</title>
<path fill="none" stroke="#757575" d="M70.76,-149.96C85.47,-171.87 119.55,-218.16 160,-242.88 162.43,-244.36 164.97,-245.74 167.58,-247.03"/>
<polygon fill="#757575" stroke="#757575" points="165.99,-250.16 176.56,-250.93 168.78,-243.74 165.99,-250.16"/>
</g>
<!-- lone&#45;wolf&#45;fists.mjs&#45;&gt;documents/actor.mjs -->
<g id="edge16" class="edge">
<title>lone&#45;wolf&#45;fists.mjs&#45;&gt;documents/actor.mjs</title>
<path fill="none" stroke="#757575" d="M78.61,-150.17C97.09,-164.2 129.25,-186.99 160,-200.88 163.99,-202.68 168.17,-204.36 172.42,-205.92"/>
<polygon fill="#757575" stroke="#757575" points="171.08,-209.16 181.67,-209.07 173.34,-202.53 171.08,-209.16"/>
</g>
<!-- lone&#45;wolf&#45;fists.mjs&#45;&gt;documents/item.mjs -->
<g id="edge17" class="edge">
<title>lone&#45;wolf&#45;fists.mjs&#45;&gt;documents/item.mjs</title>
<path fill="none" stroke="#757575" d="M113.75,-150.25C132.5,-154.82 153.96,-160.05 173.58,-164.84"/>
<polygon fill="#757575" stroke="#757575" points="172.55,-168.19 183.1,-167.16 174.21,-161.39 172.55,-168.19"/>
</g>
<!-- lone&#45;wolf&#45;fists.mjs&#45;&gt;helpers/config.mjs -->
<g id="edge18" class="edge">
<title>lone&#45;wolf&#45;fists.mjs&#45;&gt;helpers/config.mjs</title>
<path fill="none" stroke="#757575" d="M124.21,-137.88C136.36,-137.88 149.22,-137.88 161.72,-137.88"/>
<polygon fill="#757575" stroke="#757575" points="161.56,-141.38 171.56,-137.88 161.56,-134.38 161.56,-141.38"/>
</g>
<!-- lone&#45;wolf&#45;fists.mjs&#45;&gt;helpers/templates.mjs -->
<g id="edge19" class="edge">
<title>lone&#45;wolf&#45;fists.mjs&#45;&gt;helpers/templates.mjs</title>
<path fill="none" stroke="#757575" d="M113.75,-125.5C132.5,-120.93 153.96,-115.7 173.58,-110.91"/>
<polygon fill="#757575" stroke="#757575" points="174.21,-114.36 183.1,-108.59 172.55,-107.56 174.21,-114.36"/>
</g>
<!-- sheets/actor&#45;sheet.mjs -->
<g id="node16" class="node">
<title>sheets/actor&#45;sheet.mjs</title>
<path fill="none" stroke="#c6c5fe" d="M304.58,-65.75C304.58,-65.75 167.92,-65.75 167.92,-65.75 163.96,-65.75 160,-61.79 160,-57.83 160,-57.83 160,-49.92 160,-49.92 160,-45.96 163.96,-42 167.92,-42 167.92,-42 304.58,-42 304.58,-42 308.54,-42 312.5,-45.96 312.5,-49.92 312.5,-49.92 312.5,-57.83 312.5,-57.83 312.5,-61.79 308.54,-65.75 304.58,-65.75"/>
<text text-anchor="middle" x="236.25" y="-48.45" font-family="Arial" font-size="14.00" fill="#c6c5fe">sheets/actor&#45;sheet.mjs</text>
</g>
<!-- lone&#45;wolf&#45;fists.mjs&#45;&gt;sheets/actor&#45;sheet.mjs -->
<g id="edge20" class="edge">
<title>lone&#45;wolf&#45;fists.mjs&#45;&gt;sheets/actor&#45;sheet.mjs</title>
<path fill="none" stroke="#757575" d="M78.61,-125.58C97.09,-111.55 129.25,-88.76 160,-74.88 163.99,-73.07 168.17,-71.39 172.42,-69.83"/>
<polygon fill="#757575" stroke="#757575" points="173.34,-73.22 181.67,-66.68 171.08,-66.59 173.34,-73.22"/>
</g>
<!-- sheets/item&#45;sheet.mjs -->
<g id="node17" class="node">
<title>sheets/item&#45;sheet.mjs</title>
<path fill="none" stroke="#c6c5fe" d="M302.71,-23.75C302.71,-23.75 169.79,-23.75 169.79,-23.75 165.83,-23.75 161.88,-19.79 161.88,-15.83 161.88,-15.83 161.88,-7.92 161.88,-7.92 161.88,-3.96 165.83,0 169.79,0 169.79,0 302.71,0 302.71,0 306.67,0 310.62,-3.96 310.62,-7.92 310.62,-7.92 310.62,-15.83 310.62,-15.83 310.62,-19.79 306.67,-23.75 302.71,-23.75"/>
<text text-anchor="middle" x="236.25" y="-6.45" font-family="Arial" font-size="14.00" fill="#c6c5fe">sheets/item&#45;sheet.mjs</text>
</g>
<!-- lone&#45;wolf&#45;fists.mjs&#45;&gt;sheets/item&#45;sheet.mjs -->
<g id="edge21" class="edge">
<title>lone&#45;wolf&#45;fists.mjs&#45;&gt;sheets/item&#45;sheet.mjs</title>
<path fill="none" stroke="#757575" d="M70.76,-125.79C85.47,-103.88 119.55,-57.59 160,-32.88 162.43,-31.39 164.97,-30.01 167.58,-28.72"/>
<polygon fill="#757575" stroke="#757575" points="168.78,-32.01 176.56,-24.82 165.99,-25.59 168.78,-32.01"/>
</g>
<!-- sheets/actor&#45;sheet.mjs&#45;&gt;helpers/effects.mjs -->
<g id="edge22" class="edge">
<title>sheets/actor&#45;sheet.mjs&#45;&gt;helpers/effects.mjs</title>
<path fill="none" stroke="#757575" d="M312.74,-45.58C326.1,-44.11 340.01,-42.58 353.35,-41.11"/>
<polygon fill="#757575" stroke="#757575" points="353.34,-44.63 362.9,-40.06 352.57,-37.67 353.34,-44.63"/>
</g>
<!-- sheets/item&#45;sheet.mjs&#45;&gt;helpers/effects.mjs -->
<g id="edge23" class="edge">
<title>sheets/item&#45;sheet.mjs&#45;&gt;helpers/effects.mjs</title>
<path fill="none" stroke="#757575" d="M311.1,-19.99C324.79,-21.5 339.11,-23.07 352.86,-24.59"/>
<polygon fill="#757575" stroke="#757575" points="352.41,-28.06 362.73,-25.67 353.17,-21.1 352.41,-28.06"/>
</g>
</g>
</svg>
