<?xml version="1.0" encoding="UTF-8" standalone="no"?>
<!DOCTYPE svg PUBLIC "-//W3C//DTD SVG 1.1//EN"
 "http://www.w3.org/Graphics/SVG/1.1/DTD/svg11.dtd">
<!-- Generated by graphviz version 12.2.0 (20241103.1931)
 -->
<!-- Title: G Pages: 1 -->
<svg width="467pt" height="109pt"
 viewBox="0.00 0.00 466.95 108.95" xmlns="http://www.w3.org/2000/svg" xmlns:xlink="http://www.w3.org/1999/xlink">
<g id="graph0" class="graph" transform="scale(1 1) rotate(0) translate(21.6 87.35)">
<title>G</title>
<polygon fill="#111111" stroke="none" points="-21.6,21.6 -21.6,-87.35 445.35,-87.35 445.35,21.6 -21.6,21.6"/>
<!-- actor&#45;character.mjs -->
<g id="node1" class="node">
<title>actor&#45;character.mjs</title>
<path fill="none" stroke="#c6c5fe" d="M123.58,-44.75C123.58,-44.75 7.92,-44.75 7.92,-44.75 3.96,-44.75 0,-40.79 0,-36.83 0,-36.83 0,-28.92 0,-28.92 0,-24.96 3.96,-21 7.92,-21 7.92,-21 123.58,-21 123.58,-21 127.54,-21 131.5,-24.96 131.5,-28.92 131.5,-28.92 131.5,-36.83 131.5,-36.83 131.5,-40.79 127.54,-44.75 123.58,-44.75"/>
<text text-anchor="middle" x="65.75" y="-27.45" font-family="Arial" font-size="14.00" fill="#c6c5fe">actor&#45;character.mjs</text>
</g>
<!-- archetypes.mjs -->
<g id="node2" class="node">
<title>archetypes.mjs</title>
<path fill="none" stroke="#cfffac" d="M267.08,-65.75C267.08,-65.75 175.42,-65.75 175.42,-65.75 171.46,-65.75 167.5,-61.79 167.5,-57.83 167.5,-57.83 167.5,-49.92 167.5,-49.92 167.5,-45.96 171.46,-42 175.42,-42 175.42,-42 267.08,-42 267.08,-42 271.04,-42 275,-45.96 275,-49.92 275,-49.92 275,-57.83 275,-57.83 275,-61.79 271.04,-65.75 267.08,-65.75"/>
<text text-anchor="middle" x="221.25" y="-48.45" font-family="Arial" font-size="14.00" fill="#cfffac">archetypes.mjs</text>
</g>
<!-- actor&#45;character.mjs&#45;&gt;archetypes.mjs -->
<g id="edge1" class="edge">
<title>actor&#45;character.mjs&#45;&gt;archetypes.mjs</title>
<path fill="none" stroke="#757575" d="M131.85,-41.78C139.75,-42.86 147.83,-43.97 155.73,-45.05"/>
<polygon fill="#757575" stroke="#757575" points="155.25,-48.51 165.63,-46.4 156.2,-41.58 155.25,-48.51"/>
</g>
<!-- base&#45;actor.mjs -->
<g id="node3" class="node">
<title>base&#45;actor.mjs</title>
<path fill="none" stroke="#c6c5fe" d="M265.58,-23.75C265.58,-23.75 176.92,-23.75 176.92,-23.75 172.96,-23.75 169,-19.79 169,-15.83 169,-15.83 169,-7.92 169,-7.92 169,-3.96 172.96,0 176.92,0 176.92,0 265.58,0 265.58,0 269.54,0 273.5,-3.96 273.5,-7.92 273.5,-7.92 273.5,-15.83 273.5,-15.83 273.5,-19.79 269.54,-23.75 265.58,-23.75"/>
<text text-anchor="middle" x="221.25" y="-6.45" font-family="Arial" font-size="14.00" fill="#c6c5fe">base&#45;actor.mjs</text>
</g>
<!-- actor&#45;character.mjs&#45;&gt;base&#45;actor.mjs -->
<g id="edge2" class="edge">
<title>actor&#45;character.mjs&#45;&gt;base&#45;actor.mjs</title>
<path fill="none" stroke="#757575" d="M131.85,-23.97C140.27,-22.82 148.89,-21.64 157.28,-20.49"/>
<polygon fill="#757575" stroke="#757575" points="157.61,-23.98 167.05,-19.15 156.66,-17.04 157.61,-23.98"/>
</g>
<!-- base&#45;model.mjs -->
<g id="node4" class="node">
<title>base&#45;model.mjs</title>
<path fill="none" stroke="#cfffac" d="M415.83,-23.75C415.83,-23.75 318.92,-23.75 318.92,-23.75 314.96,-23.75 311,-19.79 311,-15.83 311,-15.83 311,-7.92 311,-7.92 311,-3.96 314.96,0 318.92,0 318.92,0 415.83,0 415.83,0 419.79,0 423.75,-3.96 423.75,-7.92 423.75,-7.92 423.75,-15.83 423.75,-15.83 423.75,-19.79 419.79,-23.75 415.83,-23.75"/>
<text text-anchor="middle" x="367.38" y="-6.45" font-family="Arial" font-size="14.00" fill="#cfffac">base&#45;model.mjs</text>
</g>
<!-- base&#45;actor.mjs&#45;&gt;base&#45;model.mjs -->
<g id="edge3" class="edge">
<title>base&#45;actor.mjs&#45;&gt;base&#45;model.mjs</title>
<path fill="none" stroke="#757575" d="M273.88,-11.88C282.09,-11.88 290.7,-11.88 299.21,-11.88"/>
<polygon fill="#757575" stroke="#757575" points="299.21,-15.38 309.21,-11.88 299.21,-8.38 299.21,-15.38"/>
</g>
</g>
</svg>
