<svg style="height: 512px; width: 512px;" xmlns="http://www.w3.org/2000/svg" viewBox="0 0 512 512"><defs><filter id="shadow-1" height="300%" width="300%" x="-100%" y="-100%"><feFlood flood-color="rgba(245, 166, 35, 1)" result="flood"></feFlood><feComposite in="flood" in2="SourceGraphic" operator="atop" result="composite"></feComposite><feGaussianBlur in="composite" stdDeviation="30" result="blur"></feGaussianBlur><feOffset dx="0" dy="0" result="offset"></feOffset><feComposite in="SourceGraphic" in2="offset" operator="over"></feComposite></filter></defs><path d="M10 10h492v492H10z" fill="#ffecc8" fill-opacity="1" stroke="#000000" stroke-opacity="1" stroke-width="10"></path><g class="" style="" transform="translate(0,0)"><path d="M256 16c-52.5 252.632-210 277.845 0 454.688C466 293.845 308.5 268.63 256 16zM124.75 167.407C98.5 243.197 46 294.117 46 369.907S151 496 229.75 496c-157.5-126.317-105-202.278-105-328.593zm262.5 0c0 126.317 52.5 202.278-105 328.593C361 496 466 445.696 466 369.907c0-75.79-52.5-126.71-78.75-202.5z" fill="#f5a623" fill-opacity="1" filter="url(#shadow-1)" stroke="#f5a623" stroke-opacity="1" stroke-width="4"></path></g></svg>