<svg style="height: 512px; width: 512px;" xmlns="http://www.w3.org/2000/svg" viewBox="0 0 512 512"><defs><filter id="shadow-2" height="300%" width="300%" x="-100%" y="-100%"><feFlood flood-color="rgba(65, 117, 5, 1)" result="flood"></feFlood><feComposite in="flood" in2="SourceGraphic" operator="atop" result="composite"></feComposite><feGaussianBlur in="composite" stdDeviation="30" result="blur"></feGaussianBlur><feOffset dx="0" dy="0" result="offset"></feOffset><feComposite in="SourceGraphic" in2="offset" operator="over"></feComposite></filter><filter id="shadow-3" height="300%" width="300%" x="-100%" y="-100%"><feFlood flood-color="rgba(65, 117, 5, 1)" result="flood"></feFlood><feComposite in="flood" in2="SourceGraphic" operator="atop" result="composite"></feComposite><feGaussianBlur in="composite" stdDeviation="30" result="blur"></feGaussianBlur><feOffset dx="0" dy="0" result="offset"></feOffset><feComposite in="SourceGraphic" in2="offset" operator="over"></feComposite></filter><filter id="shadow-4" height="300%" width="300%" x="-100%" y="-100%"><feFlood flood-color="rgba(65, 117, 5, 1)" result="flood"></feFlood><feComposite in="flood" in2="SourceGraphic" operator="atop" result="composite"></feComposite><feGaussianBlur in="composite" stdDeviation="30" result="blur"></feGaussianBlur><feOffset dx="0" dy="0" result="offset"></feOffset><feComposite in="SourceGraphic" in2="offset" operator="over"></feComposite></filter><filter id="shadow-5" height="300%" width="300%" x="-100%" y="-100%"><feFlood flood-color="rgba(139, 87, 42, 1)" result="flood"></feFlood><feComposite in="flood" in2="SourceGraphic" operator="atop" result="composite"></feComposite><feGaussianBlur in="composite" stdDeviation="30" result="blur"></feGaussianBlur><feOffset dx="0" dy="0" result="offset"></feOffset><feComposite in="SourceGraphic" in2="offset" operator="over"></feComposite></filter><filter id="shadow-6" height="300%" width="300%" x="-100%" y="-100%"><feFlood flood-color="rgba(139, 87, 42, 1)" result="flood"></feFlood><feComposite in="flood" in2="SourceGraphic" operator="atop" result="composite"></feComposite><feGaussianBlur in="composite" stdDeviation="30" result="blur"></feGaussianBlur><feOffset dx="0" dy="0" result="offset"></feOffset><feComposite in="SourceGraphic" in2="offset" operator="over"></feComposite></filter><filter id="shadow-7" height="300%" width="300%" x="-100%" y="-100%"><feFlood flood-color="rgba(139, 87, 42, 1)" result="flood"></feFlood><feComposite in="flood" in2="SourceGraphic" operator="atop" result="composite"></feComposite><feGaussianBlur in="composite" stdDeviation="30" result="blur"></feGaussianBlur><feOffset dx="0" dy="0" result="offset"></feOffset><feComposite in="SourceGraphic" in2="offset" operator="over"></feComposite></filter><filter id="shadow-8" height="300%" width="300%" x="-100%" y="-100%"><feFlood flood-color="rgba(65, 117, 5, 1)" result="flood"></feFlood><feComposite in="flood" in2="SourceGraphic" operator="atop" result="composite"></feComposite><feGaussianBlur in="composite" stdDeviation="30" result="blur"></feGaussianBlur><feOffset dx="0" dy="0" result="offset"></feOffset><feComposite in="SourceGraphic" in2="offset" operator="over"></feComposite></filter><filter id="shadow-9" height="300%" width="300%" x="-100%" y="-100%"><feFlood flood-color="rgba(65, 117, 5, 1)" result="flood"></feFlood><feComposite in="flood" in2="SourceGraphic" operator="atop" result="composite"></feComposite><feGaussianBlur in="composite" stdDeviation="30" result="blur"></feGaussianBlur><feOffset dx="0" dy="0" result="offset"></feOffset><feComposite in="SourceGraphic" in2="offset" operator="over"></feComposite></filter><filter id="shadow-10" height="300%" width="300%" x="-100%" y="-100%"><feFlood flood-color="rgba(181, 114, 4, 1)" result="flood"></feFlood><feComposite in="flood" in2="SourceGraphic" operator="atop" result="composite"></feComposite><feGaussianBlur in="composite" stdDeviation="30" result="blur"></feGaussianBlur><feOffset dx="0" dy="0" result="offset"></feOffset><feComposite in="SourceGraphic" in2="offset" operator="over"></feComposite></filter><filter id="shadow-11" height="300%" width="300%" x="-100%" y="-100%"><feFlood flood-color="rgba(181, 114, 4, 1)" result="flood"></feFlood><feComposite in="flood" in2="SourceGraphic" operator="atop" result="composite"></feComposite><feGaussianBlur in="composite" stdDeviation="30" result="blur"></feGaussianBlur><feOffset dx="0" dy="0" result="offset"></feOffset><feComposite in="SourceGraphic" in2="offset" operator="over"></feComposite></filter><filter id="shadow-12" height="300%" width="300%" x="-100%" y="-100%"><feFlood flood-color="rgba(181, 114, 4, 1)" result="flood"></feFlood><feComposite in="flood" in2="SourceGraphic" operator="atop" result="composite"></feComposite><feGaussianBlur in="composite" stdDeviation="30" result="blur"></feGaussianBlur><feOffset dx="0" dy="0" result="offset"></feOffset><feComposite in="SourceGraphic" in2="offset" operator="over"></feComposite></filter></defs><path d="M0 0h512v512H0z" fill="#ffffff" fill-opacity="1"></path><g class="" style="" transform="translate(0,0)"><g><path d="M313.855 22.996C306.56 23.075 299.298 24.462 293.685 27.875C278.745 37.212 268.491 54.296 261.905 74.315C257.019 89.163 254.225 105.398 252.709 120.381C261.134 116.331 269.767 112.185 279.139 108.981C293.599 104.035 310.134 101.984 327.666 108.668C331.494 110.133 335.365 111.484 339.273 112.721C352.831 106.87 364.472 96.376 359.137 82.195L375.895 75.623C380.131 93.35 377.456 106.428 365.485 117.593C371.445 117.597 376.162 116.569 380.515 115.093C391.319 111.434 401.869 102.891 421.063 99.586L421.197 99.563L421.33 99.545C434.442 97.691 447.6 102.352 460.979 108.195C469.045 111.718 477.129 115.741 485.099 119.711C481.747 102.811 476.926 87.037 470.239 74.387C461.351 57.576 450.285 42.611 433.678 43.055C420.141 43.416 411.986 59.972 404.631 69.25C397.444 62.114 389.653 54.913 383.471 49.758C366.127 34.761 344.361 26.76 323.671 23.633C320.419 23.181 317.138 22.968 313.855 22.996Z" class="selected" fill="#417505" fill-opacity="1" filter="url(#shadow-2)" stroke="#417505" stroke-opacity="1" stroke-width="4"></path><path d="M118.229 27.916C81.289 45.659 58.247 75.386 42.16 107.143C46.56 104.927 51.321 102.607 56.4 100.303C77.85 90.573 103.48 80.642 125.195 82.926C146.5 87.532 162.374 99.566 177.813 112.729C197.247 98.579 217.406 91.94 238.375 93.744C241.165 80.349 244.335 68.564 249.185 56.936C245.628 52.464 241.782 48.229 237.672 44.26C218.824 47.45 198.349 52.118 179.619 50.027C157.429 46.455 127.706 32.103 118.229 27.916Z" class="" fill="#417505" fill-opacity="1" filter="url(#shadow-3)" stroke="#417505" stroke-opacity="1" stroke-width="4"></path><path d="M38.643 32.189L32.996 49.281L53.779 56.148C58.008 51.072 62.511 46.231 67.268 41.646L38.643 32.19Z" class="" fill="#417505" fill-opacity="1" filter="url(#shadow-4)" stroke="#417505" stroke-opacity="1" stroke-width="4"></path><path d="M134.205 104.604C111.345 118.459 81.865 123.845 59.075 130.393L64.088 147.68C94.892 137.466 127.363 134.26 150.672 114.348C145.292 110.617 139.424 107.116 134.205 104.604Z" class="" fill="#8b572a" fill-opacity="1" filter="url(#shadow-5)" stroke="#8b572a" stroke-opacity="1" stroke-width="4"></path><path d="M235.559 111.584C205.739 111.724 175.574 130.901 174.819 154.422C173.523 166.187 174.429 175.314 176.938 182.736C166.855 189.456 156.185 195.686 145.535 200.211C147.841 206.19 149.338 212.197 150.4 217.988C163.662 212.3 174.889 205.711 186.203 198.188C197.895 209.232 214.21 215.734 226.842 219.307C243.012 223.791 260.615 226.541 275.943 230.572C291.271 234.603 305.703 239.662 312.287 253.012C316.589 261.733 317.257 271.111 314.397 279.154C312.53 284.402 309.423 288.963 305.549 293L384.829 293C388.299 287.523 391.857 281.39 394.549 276.217C410.642 277.579 433.561 277.353 444.838 269.453C455.523 261.608 459.826 248.465 463.26 237.154C465.098 231.099 466.363 225.595 467.178 221.65C457.631 220.923 448.549 223.623 446.038 231.926C443.008 241.906 437.378 252.6 434.186 254.943C423.125 259.073 413.016 259.466 402.225 258.789C404.827 249.305 406.778 234.625 403.498 227.438C383.972 225.008 368.25 232.324 349.516 246.395L336.996 233.685C343.476 225.321 347.295 214.369 352.466 202.701C337.056 200.444 319.826 199.518 303.131 198.709C280.583 197.616 259.195 196.877 242.795 192.072C234.595 189.67 227.195 186.209 222.18 179.639C217.164 173.069 216.108 163.763 218.844 154.787C221.534 145.962 226.874 138.586 233.713 132.307C234.091 125.757 234.663 118.805 235.559 111.584Z" class="" fill="#8b572a" fill-opacity="1" filter="url(#shadow-6)" stroke="#8b572a" stroke-opacity="1" stroke-width="4"></path><path d="M256.014 138.874C249.86 141.457 244.239 146.659 240.534 151.541C277.291 169.365 301.222 165.554 324.178 166.318L324.778 148.328C301.491 147.553 284.442 151.017 256.014 138.873Z" class="" fill="#8b572a" fill-opacity="1" filter="url(#shadow-7)" stroke="#8b572a" stroke-opacity="1" stroke-width="4"></path><path d="M405.127 174.534C381.625 183.697 374.763 195.934 366.68 215.543C393.115 206.485 410.51 210.763 437.148 211.75L456.717 202.717L501.209 206.426C493.593 193.843 485.886 182.916 474.848 176.354L446.064 183.902L405.127 174.533Z" class="" fill="#417505" fill-opacity="1" filter="url(#shadow-8)" stroke="#417505" stroke-opacity="1" stroke-width="4"></path><path d="M47.647 179.418C32.863 188.775 27.625 201.804 22.129 215.949L49.213 217.193C58.757 210.823 71.808 204.407 81.016 206.088C96.155 210.808 105.467 222.976 113.26 234.463L131.887 217.668C129.206 204.406 124.808 193.276 110.457 183.113C88.617 190.095 67.251 188.182 47.647 179.418Z" class="" fill="#417505" fill-opacity="1" filter="url(#shadow-9)" stroke="#417505" stroke-opacity="1" stroke-width="4"></path><path d="M20 311L20 329L492 329L492 311L20 311Z" class="" fill="#b57204" fill-opacity="1" filter="url(#shadow-10)" stroke="#b57204" stroke-opacity="1" stroke-width="4"></path><path d="M43.527 345L67.027 439L444.973 439L468.473 345L43.527 345Z" class="" fill="#b57204" fill-opacity="1" filter="url(#shadow-11)" stroke="#b57204" stroke-opacity="1" stroke-width="4"></path><path d="M28.487 457L38.487 487L473.514 487L483.514 457L28.486 457Z" class="" fill="#b57204" fill-opacity="1" filter="url(#shadow-12)" stroke="#b57204" stroke-opacity="1" stroke-width="4"></path></g></g></svg>