<svg style="height: 512px; width: 512px;" xmlns="http://www.w3.org/2000/svg" viewBox="0 0 512 512"><defs><filter id="shadow-2" height="300%" width="300%" x="-100%" y="-100%"><feFlood flood-color="rgba(0, 0, 0, 1)" result="flood"></feFlood><feComposite in="flood" in2="SourceGraphic" operator="atop" result="composite"></feComposite><feGaussianBlur in="composite" stdDeviation="30" result="blur"></feGaussianBlur><feOffset dx="0" dy="0" result="offset"></feOffset><feComposite in="SourceGraphic" in2="offset" operator="over"></feComposite></filter><filter id="shadow-3" height="300%" width="300%" x="-100%" y="-100%"><feFlood flood-color="rgba(0, 0, 0, 1)" result="flood"></feFlood><feComposite in="flood" in2="SourceGraphic" operator="atop" result="composite"></feComposite><feGaussianBlur in="composite" stdDeviation="30" result="blur"></feGaussianBlur><feOffset dx="0" dy="0" result="offset"></feOffset><feComposite in="SourceGraphic" in2="offset" operator="over"></feComposite></filter><filter id="shadow-4" height="300%" width="300%" x="-100%" y="-100%"><feFlood flood-color="rgba(0, 0, 0, 1)" result="flood"></feFlood><feComposite in="flood" in2="SourceGraphic" operator="atop" result="composite"></feComposite><feGaussianBlur in="composite" stdDeviation="30" result="blur"></feGaussianBlur><feOffset dx="0" dy="0" result="offset"></feOffset><feComposite in="SourceGraphic" in2="offset" operator="over"></feComposite></filter><filter id="shadow-5" height="300%" width="300%" x="-100%" y="-100%"><feFlood flood-color="rgba(0, 0, 0, 1)" result="flood"></feFlood><feComposite in="flood" in2="SourceGraphic" operator="atop" result="composite"></feComposite><feGaussianBlur in="composite" stdDeviation="30" result="blur"></feGaussianBlur><feOffset dx="0" dy="0" result="offset"></feOffset><feComposite in="SourceGraphic" in2="offset" operator="over"></feComposite></filter><filter id="shadow-6" height="300%" width="300%" x="-100%" y="-100%"><feFlood flood-color="rgba(0, 0, 0, 1)" result="flood"></feFlood><feComposite in="flood" in2="SourceGraphic" operator="atop" result="composite"></feComposite><feGaussianBlur in="composite" stdDeviation="30" result="blur"></feGaussianBlur><feOffset dx="0" dy="0" result="offset"></feOffset><feComposite in="SourceGraphic" in2="offset" operator="over"></feComposite></filter><filter id="shadow-7" height="300%" width="300%" x="-100%" y="-100%"><feFlood flood-color="rgba(0, 0, 0, 1)" result="flood"></feFlood><feComposite in="flood" in2="SourceGraphic" operator="atop" result="composite"></feComposite><feGaussianBlur in="composite" stdDeviation="30" result="blur"></feGaussianBlur><feOffset dx="0" dy="0" result="offset"></feOffset><feComposite in="SourceGraphic" in2="offset" operator="over"></feComposite></filter></defs><path d="M10 10h492v492H10z" fill="#6d666c" fill-opacity="1" stroke="#000000" stroke-opacity="1" stroke-width="10"></path><g class="" style="" transform="translate(0,0)"><g><path d="M254.07 19.707C197.767 48.705 147.773 127.024 131.43 188.414C163.875 190.524 190.06 201.377 210.068 219.262L219.402 209.064C206.066 196.008 188.806 185.164 166.408 174.357C179.088 142.815 198.418 95.067 223.006 92.287C232.626 91.199 242.926 97.009 254.136 113.355C289.216 55.021 322.53 132.06 341.863 174.357C319.923 186.254 302.731 197.177 289.233 210.381L297.913 220.141C317.593 202.409 343.633 190.783 376.463 188.468C358.24 127.335 311.515 50.14 254.07 19.707Z" class="" fill="#6e0061" fill-opacity="1" filter="url(#shadow-2)" stroke="#000000" stroke-opacity="1" stroke-width="4"></path><path d="M219.617 144.57C210.723 144.57 203.514 148.522 203.514 153.396C203.514 158.271 210.724 162.223 219.617 162.223C228.511 162.223 235.723 158.273 235.723 153.396C235.723 148.522 228.511 144.57 219.617 144.57Z" class="" fill="#000000" fill-opacity="1" stroke="#000000" stroke-opacity="1" stroke-width="4" filter="url(#shadow-3)"></path><path d="M288.582 144.57C279.688 144.57 272.477 148.522 272.477 153.396C272.477 158.271 279.687 162.223 288.582 162.223C297.476 162.223 304.688 158.273 304.688 153.396C304.688 148.522 297.476 144.57 288.582 144.57Z" class="" fill="#000000" fill-opacity="1" stroke="#000000" stroke-opacity="1" stroke-width="4" filter="url(#shadow-4)"></path><path d="M169.688 215.45C167.498 219.122 165.345 222.947 163.244 226.97C137.657 275.95 119.984 350.613 119.348 450.45C152.124 469.34 183.67 481.774 215.055 487.438C179.555 463.078 154.68 406.545 154.68 340.684C154.68 294.714 166.8 253.294 186.19 224.178C181.092 220.806 175.607 217.888 169.688 215.451Z" class="" fill="#6e0061" fill-opacity="1" filter="url(#shadow-5)" stroke="#000000" stroke-opacity="1" stroke-width="4"></path><path d="M338.621 215.8C332.769 218.277 327.351 221.212 322.323 224.564C341.563 253.659 353.577 294.918 353.577 340.684C353.577 406.504 328.733 463.006 293.271 487.391C324.151 481.793 355.711 469.579 388.927 450.444C388.289 350.874 370.617 276.281 345.027 227.267C342.939 223.265 340.799 219.457 338.622 215.8Z" class="selected" fill="#6e0061" fill-opacity="1" filter="url(#shadow-6)" stroke="#000000" stroke-opacity="1" stroke-width="4"></path><path d="M240.956 239.41C247.982 261.953 250.084 284.496 241.936 307.04L200.384 307.04L200.384 325.553C210.441 322.313 220.634 320.163 230.886 318.959C230.952 369.174 232.199 415.533 250.706 464.394L254.899 475.468L259.384 464.506C278.864 416.891 277.429 369.209 277.317 319.482C287.574 320.815 297.78 322.882 307.862 325.552L307.862 307.037L266.488 307.037C259.6 284.493 260.556 261.95 267.291 239.407L240.956 239.407Z" class="" fill="#000000" fill-opacity="1" stroke="#000000" stroke-opacity="1" stroke-width="4" filter="url(#shadow-7)"></path></g></g></svg>