<svg style="height: 512px; width: 512px;" xmlns="http://www.w3.org/2000/svg" viewBox="0 0 512 512"><defs><filter id="shadow-2" height="300%" width="300%" x="-100%" y="-100%"><feFlood flood-color="rgba(201, 201, 201, 1)" result="flood"></feFlood><feComposite in="flood" in2="SourceGraphic" operator="atop" result="composite"></feComposite><feGaussianBlur in="composite" stdDeviation="30" result="blur"></feGaussianBlur><feOffset dx="0" dy="0" result="offset"></feOffset><feComposite in="SourceGraphic" in2="offset" operator="over"></feComposite></filter><filter id="shadow-3" height="300%" width="300%" x="-100%" y="-100%"><feFlood flood-color="rgba(201, 201, 201, 1)" result="flood"></feFlood><feComposite in="flood" in2="SourceGraphic" operator="atop" result="composite"></feComposite><feGaussianBlur in="composite" stdDeviation="30" result="blur"></feGaussianBlur><feOffset dx="0" dy="0" result="offset"></feOffset><feComposite in="SourceGraphic" in2="offset" operator="over"></feComposite></filter><filter id="shadow-4" height="300%" width="300%" x="-100%" y="-100%"><feFlood flood-color="rgba(201, 201, 201, 1)" result="flood"></feFlood><feComposite in="flood" in2="SourceGraphic" operator="atop" result="composite"></feComposite><feGaussianBlur in="composite" stdDeviation="30" result="blur"></feGaussianBlur><feOffset dx="0" dy="0" result="offset"></feOffset><feComposite in="SourceGraphic" in2="offset" operator="over"></feComposite></filter><filter id="shadow-5" height="300%" width="300%" x="-100%" y="-100%"><feFlood flood-color="rgba(127, 124, 0, 1)" result="flood"></feFlood><feComposite in="flood" in2="SourceGraphic" operator="atop" result="composite"></feComposite><feGaussianBlur in="composite" stdDeviation="30" result="blur"></feGaussianBlur><feOffset dx="0" dy="0" result="offset"></feOffset><feComposite in="SourceGraphic" in2="offset" operator="over"></feComposite></filter><filter id="shadow-6" height="300%" width="300%" x="-100%" y="-100%"><feFlood flood-color="rgba(127, 124, 0, 1)" result="flood"></feFlood><feComposite in="flood" in2="SourceGraphic" operator="atop" result="composite"></feComposite><feGaussianBlur in="composite" stdDeviation="30" result="blur"></feGaussianBlur><feOffset dx="0" dy="0" result="offset"></feOffset><feComposite in="SourceGraphic" in2="offset" operator="over"></feComposite></filter><filter id="shadow-7" height="300%" width="300%" x="-100%" y="-100%"><feFlood flood-color="rgba(127, 124, 0, 1)" result="flood"></feFlood><feComposite in="flood" in2="SourceGraphic" operator="atop" result="composite"></feComposite><feGaussianBlur in="composite" stdDeviation="30" result="blur"></feGaussianBlur><feOffset dx="0" dy="0" result="offset"></feOffset><feComposite in="SourceGraphic" in2="offset" operator="over"></feComposite></filter></defs><path d="M0 0h512v512H0z" fill="#ffffff" fill-opacity="1"></path><g class="" style="" transform="translate(0,0)"><g><path d="M52.75 18.77C219.1 90.98 350.8 176.7 426.6 273.5C363.1 354.7 262.1 428.8 135.1 494L175.1 494C254.4 450.9 323 404.1 377.7 353.5C338.6 403.9 289.6 450.9 232.8 494L263.2 494C343.3 430.1 407.5 357.8 448.6 277.7L450.8 273.5L448.6 269.2C399.4 173.5 315.9 89.89 211 18.77L177.1 18.77C257.6 70.37 325.9 128.8 377 193.4C305.7 128.5 210.5 70.41 98.51 18.77L52.75 18.77Z" class="" fill="#c9c9c9" fill-opacity="1" filter="url(#shadow-2)" stroke="#c9c9c9" stroke-opacity="1" stroke-width="4"></path><path d="M339.6 18.77C419.5 87.02 464.5 168.5 472.2 250.8C479.9 334.4 449.4 419.4 375.4 494L401.2 494C422 471.3 439.1 447.5 452.7 423.1C445.1 447.6 435.6 471.3 423.9 494L444.8 494C517.1 345.3 506.5 157.5 427 18.77L405.4 18.77C425.4 51.9 441.3 88.33 452.7 126.6C432.1 88.5 403.6 52.14 367.7 18.77L339.6 18.77Z" class="" fill="#c9c9c9" fill-opacity="1" filter="url(#shadow-3)" stroke="#c9c9c9" stroke-opacity="1" stroke-width="4"></path><path d="M19.29 100.4L19.29 119.1C118.2 119.6 211.4 152.9 295.1 212.4C211.4 169.3 118.1 145 19.29 144.6L19.29 163.3C145.6 163.8 262.4 204.6 361.2 274.5C262 345.4 146.2 389 19.29 389.6L19.29 408.2C116.4 407.8 207.2 383 289.1 340.6C207 399.2 116.3 433.2 19.29 433.8L19.29 452.5C157.8 451.7 283.4 385.6 388.9 280.3L395.6 273.7L388.9 267C284.9 160.6 140.1 103.1 19.29 100.4Z" class="selected" fill="#c9c9c9" fill-opacity="1" filter="url(#shadow-4)" stroke="#c9c9c9" stroke-opacity="1" stroke-width="4"></path><path d="M200.8 236.3L200.8 316.6C249 316.6 292.8 301 329.8 275.8C292.9 250.8 248.7 236.3 200.8 236.3Z" class="" fill="#7f7c00" fill-opacity="1" filter="url(#shadow-5)" stroke="#7f7c00" stroke-opacity="1" stroke-width="4"></path><path d="M36.63 236.8L36.63 316L58.96 316L58.96 236.8Z" class="" fill="#7f7c00" fill-opacity="1" filter="url(#shadow-6)" stroke="#7f7c00" stroke-opacity="1" stroke-width="4"></path><path d="M77.65 236.8L77.65 316L179.3 316L179.3 236.8Z" class="" fill="#7f7c00" fill-opacity="1" filter="url(#shadow-7)" stroke="#7f7c00" stroke-opacity="1" stroke-width="4"></path></g></g></svg>