<?xml version="1.0" encoding="UTF-8"?>
<svg version="1.1" xmlns="http://www.w3.org/2000/svg" width="512" height="512">
<path d="M0 0 C2.61547053 0.80886174 4.18942354 1.71213776 6.33959961 3.3828125 C7.05728516 3.9291333 7.7749707 4.4754541 8.5144043 5.03833008 C9.28558594 5.63540771 10.05676758 6.23248535 10.85131836 6.84765625 C61.76885469 45.2963075 118.81213703 71.99688195 180.53881836 87.78515625 C181.44599609 88.01976563 182.35317383 88.254375 183.2878418 88.49609375 C197.7096366 92.19817773 212.28328155 94.81987616 226.96118164 97.29199219 C229.53881836 97.78515625 229.53881836 97.78515625 232.53881836 98.78515625 C236.35097057 175.36705849 183.28376728 266.97821644 145.22631836 330.9453125 C143.63339333 333.62599884 142.0533798 336.31386655 140.47631836 339.00390625 C124.67352802 365.8244846 107.03476938 392.47446918 85.79663086 415.34375 C83.86537983 417.43204047 82.00563776 419.55607159 80.16381836 421.72265625 C62.27636092 442.21345257 36.05299509 465.80927288 7.45849609 467.94018555 C-19.72666521 469.27915206 -41.20449814 459.06712766 -61.35717773 441.09423828 C-70.0791503 433.18520405 -78.728887 425.11592824 -86.40649414 416.17578125 C-87.94868694 414.38144286 -89.50909539 412.60273416 -91.07836914 410.83203125 C-116.40291869 382.08907548 -136.45034033 348.64490628 -155.05102539 315.296875 C-156.92441098 311.96006909 -158.84925341 308.65526727 -160.77368164 305.34765625 C-163.39652499 300.76302937 -165.84398645 296.1271395 -168.18774414 291.39453125 C-168.53256332 290.70112137 -168.87738251 290.00771149 -169.23265076 289.29328918 C-169.95353123 287.84266861 -170.67359147 286.39164015 -171.39285278 284.94021606 C-172.41250727 282.88334342 -173.43539885 280.8281119 -174.45898438 278.77319336 C-236.26204547 154.49122566 -236.26204547 154.49122566 -233.46118164 98.78515625 C-232.25848633 98.56601563 -231.05579102 98.346875 -229.81665039 98.12109375 C-200.65277234 92.73028319 -171.57930033 86.31110445 -143.46118164 76.78515625 C-142.52081055 76.46708008 -141.58043945 76.14900391 -140.61157227 75.82128906 C-95.08860617 60.26785516 -51.66857651 37.64869753 -13.63696289 8.0703125 C-12.53759399 7.21880615 -12.53759399 7.21880615 -11.41601562 6.35009766 C-10.07173942 5.29822007 -8.73827761 4.23230644 -7.41845703 3.14990234 C-3.07759605 -0.26865237 -3.07759605 -0.26865237 0 0 Z M-7.64868164 61.72265625 C-30.70274498 80.36115755 -57.47293453 94.75841074 -84.46118164 106.78515625 C-85.61231445 107.30207031 -86.76344727 107.81898438 -87.94946289 108.3515625 C-114.87986794 119.75116879 -144.40205792 126.96816944 -173.26586914 131.35546875 C-175.42886546 131.56680178 -175.42886546 131.56680178 -176.46118164 132.78515625 C-181.38755687 176.18714558 -150.01496078 232.84611885 -130.58325195 270.59863281 C-129.78577518 272.15263673 -128.99405248 273.70959941 -128.20629883 275.26855469 C-116.74402594 297.95205193 -103.98057547 319.91450936 -89.46118164 340.78515625 C-89.02080566 341.42227539 -88.58042969 342.05939453 -88.12670898 342.71582031 C-82.58719922 350.70609343 -76.69894248 358.32387665 -70.46118164 365.78515625 C-68.17207281 368.61376045 -65.88525897 371.44417142 -63.60180664 374.27734375 C-61.34260611 376.92407137 -58.94465012 379.34891696 -56.46118164 381.78515625 C-55.81793945 382.45160156 -55.17469727 383.11804688 -54.51196289 383.8046875 C-53.93833008 384.39636719 -53.36469727 384.98804688 -52.77368164 385.59765625 C-52.19231445 386.20222656 -51.61094727 386.80679687 -51.01196289 387.4296875 C-49.55348272 389.00452349 -49.55348272 389.00452349 -47.46118164 388.78515625 C-47.46118164 389.44515625 -47.46118164 390.10515625 -47.46118164 390.78515625 C-45.27020659 392.61248399 -43.08224919 394.30476658 -40.77368164 395.97265625 C-40.09756836 396.4637085 -39.42145508 396.95476074 -38.72485352 397.46069336 C-23.76110727 408.12883659 -8.06300915 414.08616411 10.47631836 411.09765625 C27.20590795 407.2157904 41.08102118 397.15887839 53.08666992 385.22705078 C54.45876682 383.86464253 55.85363625 382.52528031 57.24975586 381.1875 C63.18014734 375.43045842 68.4577083 369.29472933 73.53881836 362.78515625 C74.03285156 362.15689941 74.52688477 361.52864258 75.03588867 360.88134766 C82.67611922 351.14156501 89.89891111 341.23317417 96.53881836 330.78515625 C97.03349609 330.00688477 97.52817383 329.22861328 98.0378418 328.42675781 C115.1088425 301.43881885 130.06389878 273.65654847 143.25512695 244.58154297 C144.29700472 242.31192184 145.36207812 240.0608044 146.46459961 237.8203125 C159.55534845 211.04520091 171.78580492 179.49298858 176.22631836 150.03515625 C176.35586914 149.23722656 176.48541992 148.43929687 176.61889648 147.6171875 C177.33868934 142.97852244 177.85864608 138.49205481 177.53881836 133.78515625 C174.49624376 130.74258165 170.64274064 130.73585328 166.53881836 130.03515625 C149.76181999 126.99346326 132.92387186 123.66246604 116.83569336 117.9296875 C113.43294815 116.74840273 110.0156838 115.78640992 106.53881836 114.84765625 C73.32672747 105.50792316 42.19404418 86.49476116 14.37084961 66.57421875 C13.74259277 66.1246582 13.11433594 65.67509766 12.46704102 65.21191406 C11.10563994 64.2045669 9.76861079 63.16387589 8.45043945 62.10058594 C7.76159668 61.55047852 7.07275391 61.00037109 6.36303711 60.43359375 C5.74904053 59.92747559 5.13504395 59.42135742 4.50244141 58.89990234 C-0.54226065 56.03603195 -3.64541282 58.32919424 -7.64868164 61.72265625 Z " fill="#000000" transform="translate(256.461181640625,22.21484375)"/>
</svg>
