<?xml version="1.0" encoding="UTF-8" standalone="no"?>
<!DOCTYPE svg PUBLIC "-//W3C//DTD SVG 20010904//EN"
              "http://www.w3.org/TR/2001/REC-SVG-20010904/DTD/svg10.dtd">

<svg xmlns="http://www.w3.org/2000/svg"
     width="5.68889in" height="5.68889in"
     viewBox="0 0 512 512">
  <path id="Unnamed"
        fill="#b0b0b0" stroke="#b0b0b0" stroke-width="1"
        d="M 29.00,247.98
           C 29.00,247.98 225.98,37.05 225.98,37.05
             225.98,37.05 119.99,224.98 119.99,224.98
             119.99,224.98 29.00,247.98 29.00,247.98 Z
           M 38.01,266.00
           C 38.01,266.00 121.53,244.00 121.53,244.00
             121.53,244.00 245.99,302.00 245.99,302.00
             245.99,302.00 246.00,484.98 246.00,484.98
             246.00,484.98 38.01,266.00 38.01,266.00 Z
           M 266.00,485.01
           C 266.00,485.01 266.01,301.99 266.01,301.99
             266.01,301.99 390.50,244.01 390.50,244.01
             390.50,244.01 476.00,265.97 476.00,265.97
             476.00,265.97 266.00,485.01 266.00,485.01 Z
           M 484.00,248.00M 138.01,230.99
           C 138.01,230.99 256.01,27.01 256.01,27.01
             256.01,27.01 374.02,230.03 374.02,230.03
             374.02,230.03 256.03,285.99 256.03,285.99
             256.03,285.99 138.01,230.99 138.01,230.99 Z
           M 484.01,248.00
           C 484.01,248.00 393.04,225.98 393.04,225.98
             393.04,225.98 286.00,37.02 286.00,37.02
             286.00,37.02 484.01,248.00 484.01,248.00 Z" />
</svg>
